<svg width="352" height="512" xmlns="http://www.w3.org/2000/svg" class="svg-inline--fa fa-times fa-w-11">

 <g>
  <title>background</title>
  <rect fill="none" id="canvas_background" height="402" width="582" y="-1" x="-1"/>
 </g>
 <g>
  <title>Layer 1</title>
  <path id="svg_1" d="m242.72,256l100.07,-100.07c12.28,-12.28 12.28,-32.19 0,-44.48l-22.24,-22.24c-12.28,-12.28 -32.19,-12.28 -44.48,0l-100.07,100.07l-100.07,-100.07c-12.28,-12.28 -32.19,-12.28 -44.48,0l-22.24,22.24c-12.28,12.28 -12.28,32.19 0,44.48l100.07,100.07l-100.07,100.07c-12.28,12.28 -12.28,32.19 0,44.48l22.24,22.24c12.28,12.28 32.2,12.28 44.48,0l100.07,-100.07l100.07,100.07c12.28,12.28 32.2,12.28 44.48,0l22.24,-22.24c12.28,-12.28 12.28,-32.19 0,-44.48l-100.07,-100.07z" fill="#ffffff"/>
 </g>
</svg>