<svg width="512" height="512" xmlns="http://www.w3.org/2000/svg" class="svg-inline--fa fa-cube fa-w-16">

 <g>
  <title>background</title>
  <rect fill="none" id="canvas_background" height="402" width="582" y="-1" x="-1"/>
 </g>
 <g>
  <title>Layer 1</title>
  <path id="svg_1" d="m239.1,6.3l-208,78c-18.7,7 -31.1,25 -31.1,45l0,225.1c0,18.2 10.3,34.8 26.5,42.9l208,104c13.5,6.8 29.4,6.8 42.9,0l208,-104c16.3,-8.1 26.5,-24.8 26.5,-42.9l0,-225.1c0,-20 -12.4,-37.9 -31.1,-44.9l-208,-78c-10.8,-4.2 -22.8,-4.2 -33.7,-0.1zm16.9,62.1l192,72l0,1.1l-192,78l-192,-78l0,-1.1l192,-72zm32,356l0,-148.9l160,-65l0,133.9l-160,80z" fill="#ffffff"/>
 </g>
</svg>